<mxfile host="Electron" modified="2024-05-23T06:01:38.212Z" agent="Mozilla/5.0 (Macintosh; Intel Mac OS X 10_15_7) AppleWebKit/537.36 (KHTML, like Gecko) draw.io/24.4.6 Chrome/124.0.6367.207 Electron/30.0.6 Safari/537.36" etag="IvbeE6CJs2TpwT5kEI2g" version="24.4.6" type="device" pages="3">
  <diagram name="Infrastructure" id="Ub270H9G9uaESptlyr4Z">
    <mxGraphModel dx="1985" dy="1673" grid="1" gridSize="10" guides="1" tooltips="1" connect="1" arrows="1" fold="1" page="0" pageScale="1" pageWidth="827" pageHeight="1169" math="0" shadow="0">
      <root>
        <mxCell id="0" />
        <mxCell id="1" parent="0" />
        <mxCell id="qimKjgXUxKUc-N-eaa9g-1" value="Actor" style="shape=umlActor;verticalLabelPosition=bottom;verticalAlign=top;html=1;outlineConnect=0;" vertex="1" parent="1">
          <mxGeometry x="80" y="80" width="30" height="60" as="geometry" />
        </mxCell>
        <mxCell id="qimKjgXUxKUc-N-eaa9g-2" value="" style="rounded=0;whiteSpace=wrap;html=1;" vertex="1" parent="1">
          <mxGeometry x="80" y="200" width="400" height="280" as="geometry" />
        </mxCell>
        <mxCell id="qimKjgXUxKUc-N-eaa9g-3" value="Order Service" style="rounded=0;whiteSpace=wrap;html=1;" vertex="1" parent="1">
          <mxGeometry x="110" y="250" width="120" height="60" as="geometry" />
        </mxCell>
        <mxCell id="qimKjgXUxKUc-N-eaa9g-4" value="PostgreSQL DB" style="rounded=0;whiteSpace=wrap;html=1;" vertex="1" parent="1">
          <mxGeometry x="110" y="370" width="120" height="60" as="geometry" />
        </mxCell>
        <mxCell id="qimKjgXUxKUc-N-eaa9g-5" value="" style="rounded=1;whiteSpace=wrap;html=1;" vertex="1" parent="1">
          <mxGeometry x="10" y="80" width="540" height="410" as="geometry" />
        </mxCell>
        <mxCell id="qimKjgXUxKUc-N-eaa9g-6" value="Port 27017" style="edgeStyle=orthogonalEdgeStyle;rounded=0;orthogonalLoop=1;jettySize=auto;html=1;exitX=0.5;exitY=1;exitDx=0;exitDy=0;entryX=0.5;entryY=0;entryDx=0;entryDy=0;" edge="1" parent="1" source="qimKjgXUxKUc-N-eaa9g-8" target="qimKjgXUxKUc-N-eaa9g-9">
          <mxGeometry relative="1" as="geometry" />
        </mxCell>
        <mxCell id="qimKjgXUxKUc-N-eaa9g-7" value="Port 9092" style="edgeStyle=orthogonalEdgeStyle;rounded=0;orthogonalLoop=1;jettySize=auto;html=1;exitX=0.75;exitY=1;exitDx=0;exitDy=0;entryX=0.25;entryY=0;entryDx=0;entryDy=0;" edge="1" parent="1" source="qimKjgXUxKUc-N-eaa9g-8" target="qimKjgXUxKUc-N-eaa9g-10">
          <mxGeometry relative="1" as="geometry" />
        </mxCell>
        <mxCell id="qimKjgXUxKUc-N-eaa9g-8" value="Person / Contact Service" style="rounded=0;whiteSpace=wrap;html=1;" vertex="1" parent="1">
          <mxGeometry x="40" y="110" width="200" height="160" as="geometry" />
        </mxCell>
        <mxCell id="qimKjgXUxKUc-N-eaa9g-9" value="Mongo DB&amp;nbsp;" style="shape=cylinder;whiteSpace=wrap;html=1;boundedLbl=1;backgroundOutline=1;" vertex="1" parent="1">
          <mxGeometry x="80" y="350" width="120" height="110" as="geometry" />
        </mxCell>
        <mxCell id="qimKjgXUxKUc-N-eaa9g-10" value="Kafka / Zookeeper" style="rounded=0;whiteSpace=wrap;html=1;" vertex="1" parent="1">
          <mxGeometry x="240" y="350" width="240" height="110" as="geometry" />
        </mxCell>
        <mxCell id="qimKjgXUxKUc-N-eaa9g-11" value="Port 8080" style="edgeStyle=orthogonalEdgeStyle;rounded=0;orthogonalLoop=1;jettySize=auto;html=1;" edge="1" parent="1" source="qimKjgXUxKUc-N-eaa9g-13" target="qimKjgXUxKUc-N-eaa9g-8">
          <mxGeometry relative="1" as="geometry" />
        </mxCell>
        <mxCell id="qimKjgXUxKUc-N-eaa9g-12" value="Port 9093 (Listener for out of Docker)" style="edgeStyle=orthogonalEdgeStyle;rounded=0;orthogonalLoop=1;jettySize=auto;html=1;entryX=0.75;entryY=0;entryDx=0;entryDy=0;" edge="1" parent="1" target="qimKjgXUxKUc-N-eaa9g-10">
          <mxGeometry relative="1" as="geometry">
            <mxPoint x="150" y="-20" as="sourcePoint" />
          </mxGeometry>
        </mxCell>
        <mxCell id="qimKjgXUxKUc-N-eaa9g-13" value="REST Client (Open API 3.0)" style="shape=umlActor;verticalLabelPosition=bottom;labelBackgroundColor=#ffffff;verticalAlign=top;html=1;outlineConnect=0;" vertex="1" parent="1">
          <mxGeometry x="125" y="-50" width="30" height="60" as="geometry" />
        </mxCell>
        <mxCell id="qimKjgXUxKUc-N-eaa9g-14" value="Cloud Event" style="rounded=0;whiteSpace=wrap;html=1;" vertex="1" parent="1">
          <mxGeometry x="160" y="240" width="80" height="30" as="geometry" />
        </mxCell>
        <mxCell id="qimKjgXUxKUc-N-eaa9g-22" style="edgeStyle=orthogonalEdgeStyle;rounded=0;orthogonalLoop=1;jettySize=auto;html=1;entryX=1;entryY=0.25;entryDx=0;entryDy=0;" edge="1" parent="1" source="qimKjgXUxKUc-N-eaa9g-16" target="qimKjgXUxKUc-N-eaa9g-10">
          <mxGeometry relative="1" as="geometry" />
        </mxCell>
        <mxCell id="qimKjgXUxKUc-N-eaa9g-24" value="Port 8093" style="edgeLabel;html=1;align=center;verticalAlign=middle;resizable=0;points=[];" vertex="1" connectable="0" parent="qimKjgXUxKUc-N-eaa9g-22">
          <mxGeometry x="-0.1328" y="4" relative="1" as="geometry">
            <mxPoint as="offset" />
          </mxGeometry>
        </mxCell>
        <mxCell id="qimKjgXUxKUc-N-eaa9g-23" value="" style="group" vertex="1" connectable="0" parent="1">
          <mxGeometry x="760" y="-50" width="540" height="510" as="geometry" />
        </mxCell>
        <mxCell id="qimKjgXUxKUc-N-eaa9g-15" value="" style="rounded=1;whiteSpace=wrap;html=1;" vertex="1" parent="qimKjgXUxKUc-N-eaa9g-23">
          <mxGeometry y="130" width="540" height="380" as="geometry" />
        </mxCell>
        <mxCell id="qimKjgXUxKUc-N-eaa9g-16" value="Order Service" style="rounded=0;whiteSpace=wrap;html=1;" vertex="1" parent="qimKjgXUxKUc-N-eaa9g-23">
          <mxGeometry x="20" y="180" width="220" height="130" as="geometry" />
        </mxCell>
        <mxCell id="qimKjgXUxKUc-N-eaa9g-19" value="PosgreSQL DB" style="shape=cylinder3;whiteSpace=wrap;html=1;boundedLbl=1;backgroundOutline=1;size=15;" vertex="1" parent="qimKjgXUxKUc-N-eaa9g-23">
          <mxGeometry x="50" y="390" width="160" height="80" as="geometry" />
        </mxCell>
        <mxCell id="qimKjgXUxKUc-N-eaa9g-21" value="Port 8081" style="edgeStyle=orthogonalEdgeStyle;rounded=0;orthogonalLoop=1;jettySize=auto;html=1;entryX=0.5;entryY=0;entryDx=0;entryDy=0;" edge="1" parent="qimKjgXUxKUc-N-eaa9g-23" source="qimKjgXUxKUc-N-eaa9g-20" target="qimKjgXUxKUc-N-eaa9g-16">
          <mxGeometry relative="1" as="geometry" />
        </mxCell>
        <mxCell id="qimKjgXUxKUc-N-eaa9g-20" value="REST Client (Open API 3.0)" style="shape=umlActor;verticalLabelPosition=bottom;labelBackgroundColor=#ffffff;verticalAlign=top;html=1;outlineConnect=0;" vertex="1" parent="qimKjgXUxKUc-N-eaa9g-23">
          <mxGeometry x="115" width="30" height="60" as="geometry" />
        </mxCell>
        <mxCell id="qimKjgXUxKUc-N-eaa9g-25" value="Port 5432" style="edgeStyle=orthogonalEdgeStyle;rounded=0;orthogonalLoop=1;jettySize=auto;html=1;exitX=0.5;exitY=1;exitDx=0;exitDy=0;entryX=0.5;entryY=0;entryDx=0;entryDy=0;entryPerimeter=0;" edge="1" parent="qimKjgXUxKUc-N-eaa9g-23" source="qimKjgXUxKUc-N-eaa9g-16" target="qimKjgXUxKUc-N-eaa9g-19">
          <mxGeometry relative="1" as="geometry" />
        </mxCell>
      </root>
    </mxGraphModel>
  </diagram>
  <diagram id="35eBdMaAcTHCh0tMVBuR" name="Create/Update Order">
    <mxGraphModel dx="1191" dy="764" grid="1" gridSize="10" guides="1" tooltips="1" connect="1" arrows="1" fold="1" page="1" pageScale="1" pageWidth="827" pageHeight="1169" math="0" shadow="0">
      <root>
        <mxCell id="0" />
        <mxCell id="1" parent="0" />
        <mxCell id="iH1e3BogbeshaYDqPcAG-1" value="Http Client" style="shape=umlActor;verticalLabelPosition=bottom;verticalAlign=top;html=1;outlineConnect=0;" vertex="1" parent="1">
          <mxGeometry x="90" y="60" width="30" height="60" as="geometry" />
        </mxCell>
        <mxCell id="iH1e3BogbeshaYDqPcAG-5" value="Order Service" style="rounded=0;whiteSpace=wrap;html=1;" vertex="1" parent="1">
          <mxGeometry x="200" y="70" width="120" height="60" as="geometry" />
        </mxCell>
        <mxCell id="iH1e3BogbeshaYDqPcAG-6" value="PG SQL DB" style="rounded=0;whiteSpace=wrap;html=1;" vertex="1" parent="1">
          <mxGeometry x="400" y="70" width="120" height="60" as="geometry" />
        </mxCell>
        <mxCell id="iH1e3BogbeshaYDqPcAG-7" value="Contract Service" style="rounded=0;whiteSpace=wrap;html=1;" vertex="1" parent="1">
          <mxGeometry x="600" y="70" width="120" height="60" as="geometry" />
        </mxCell>
        <mxCell id="iH1e3BogbeshaYDqPcAG-8" value="Kafka" style="rounded=0;whiteSpace=wrap;html=1;" vertex="1" parent="1">
          <mxGeometry x="800" y="70" width="120" height="60" as="geometry" />
        </mxCell>
        <mxCell id="iH1e3BogbeshaYDqPcAG-9" value="" style="endArrow=none;dashed=1;html=1;dashPattern=1 3;strokeWidth=2;rounded=0;" edge="1" parent="1" source="iH1e3BogbeshaYDqPcAG-14">
          <mxGeometry width="50" height="50" relative="1" as="geometry">
            <mxPoint x="110" y="880" as="sourcePoint" />
            <mxPoint x="110" y="160" as="targetPoint" />
          </mxGeometry>
        </mxCell>
        <mxCell id="iH1e3BogbeshaYDqPcAG-10" value="" style="endArrow=none;dashed=1;html=1;dashPattern=1 3;strokeWidth=2;rounded=0;" edge="1" parent="1" source="iH1e3BogbeshaYDqPcAG-17">
          <mxGeometry width="50" height="50" relative="1" as="geometry">
            <mxPoint x="259.5" y="880" as="sourcePoint" />
            <mxPoint x="259.5" y="160" as="targetPoint" />
          </mxGeometry>
        </mxCell>
        <mxCell id="iH1e3BogbeshaYDqPcAG-11" value="" style="endArrow=none;dashed=1;html=1;dashPattern=1 3;strokeWidth=2;rounded=0;" edge="1" parent="1" source="iH1e3BogbeshaYDqPcAG-22">
          <mxGeometry width="50" height="50" relative="1" as="geometry">
            <mxPoint x="459.5" y="880" as="sourcePoint" />
            <mxPoint x="459.5" y="160" as="targetPoint" />
          </mxGeometry>
        </mxCell>
        <mxCell id="iH1e3BogbeshaYDqPcAG-12" value="" style="endArrow=none;dashed=1;html=1;dashPattern=1 3;strokeWidth=2;rounded=0;" edge="1" parent="1" source="iH1e3BogbeshaYDqPcAG-33">
          <mxGeometry width="50" height="50" relative="1" as="geometry">
            <mxPoint x="659.5" y="880" as="sourcePoint" />
            <mxPoint x="659.5" y="160" as="targetPoint" />
          </mxGeometry>
        </mxCell>
        <mxCell id="iH1e3BogbeshaYDqPcAG-13" value="" style="endArrow=none;dashed=1;html=1;dashPattern=1 3;strokeWidth=2;rounded=0;" edge="1" parent="1">
          <mxGeometry width="50" height="50" relative="1" as="geometry">
            <mxPoint x="859.5" y="880" as="sourcePoint" />
            <mxPoint x="859.5" y="160" as="targetPoint" />
          </mxGeometry>
        </mxCell>
        <mxCell id="iH1e3BogbeshaYDqPcAG-15" value="" style="endArrow=none;dashed=1;html=1;dashPattern=1 3;strokeWidth=2;rounded=0;" edge="1" parent="1" target="iH1e3BogbeshaYDqPcAG-14">
          <mxGeometry width="50" height="50" relative="1" as="geometry">
            <mxPoint x="110" y="880" as="sourcePoint" />
            <mxPoint x="110" y="160" as="targetPoint" />
          </mxGeometry>
        </mxCell>
        <mxCell id="iH1e3BogbeshaYDqPcAG-14" value="" style="rounded=1;whiteSpace=wrap;html=1;" vertex="1" parent="1">
          <mxGeometry x="95" y="200" width="20" height="280" as="geometry" />
        </mxCell>
        <mxCell id="iH1e3BogbeshaYDqPcAG-18" value="" style="endArrow=none;dashed=1;html=1;dashPattern=1 3;strokeWidth=2;rounded=0;" edge="1" parent="1" target="iH1e3BogbeshaYDqPcAG-17">
          <mxGeometry width="50" height="50" relative="1" as="geometry">
            <mxPoint x="259.5" y="880" as="sourcePoint" />
            <mxPoint x="259.5" y="160" as="targetPoint" />
            <Array as="points">
              <mxPoint x="260" y="670" />
            </Array>
          </mxGeometry>
        </mxCell>
        <mxCell id="iH1e3BogbeshaYDqPcAG-20" value="" style="edgeStyle=orthogonalEdgeStyle;rounded=0;orthogonalLoop=1;jettySize=auto;html=1;exitX=1;exitY=0.25;exitDx=0;exitDy=0;" edge="1" parent="1" source="iH1e3BogbeshaYDqPcAG-22">
          <mxGeometry x="0.2366" y="-90" relative="1" as="geometry">
            <mxPoint x="460" y="270" as="targetPoint" />
            <mxPoint as="offset" />
          </mxGeometry>
        </mxCell>
        <mxCell id="iH1e3BogbeshaYDqPcAG-39" style="edgeStyle=orthogonalEdgeStyle;rounded=0;orthogonalLoop=1;jettySize=auto;html=1;exitX=1;exitY=0.5;exitDx=0;exitDy=0;entryX=0;entryY=0.25;entryDx=0;entryDy=0;" edge="1" parent="1">
          <mxGeometry relative="1" as="geometry">
            <mxPoint x="310" y="357.85" as="sourcePoint" />
            <mxPoint x="450" y="367.1" as="targetPoint" />
            <Array as="points">
              <mxPoint x="310" y="366.85" />
            </Array>
          </mxGeometry>
        </mxCell>
        <mxCell id="iH1e3BogbeshaYDqPcAG-40" value="Save Person in DB" style="edgeLabel;html=1;align=center;verticalAlign=middle;resizable=0;points=[];" vertex="1" connectable="0" parent="iH1e3BogbeshaYDqPcAG-39">
          <mxGeometry x="-0.313" y="-1" relative="1" as="geometry">
            <mxPoint x="28" as="offset" />
          </mxGeometry>
        </mxCell>
        <mxCell id="iH1e3BogbeshaYDqPcAG-17" value="" style="rounded=1;whiteSpace=wrap;html=1;" vertex="1" parent="1">
          <mxGeometry x="220" y="200" width="80" height="280" as="geometry" />
        </mxCell>
        <mxCell id="iH1e3BogbeshaYDqPcAG-19" value="POST/PUT" style="endArrow=classic;html=1;rounded=0;exitX=1.05;exitY=0.096;exitDx=0;exitDy=0;exitPerimeter=0;entryX=0;entryY=0.093;entryDx=0;entryDy=0;entryPerimeter=0;" edge="1" parent="1" source="iH1e3BogbeshaYDqPcAG-14" target="iH1e3BogbeshaYDqPcAG-17">
          <mxGeometry width="50" height="50" relative="1" as="geometry">
            <mxPoint x="130" y="270" as="sourcePoint" />
            <mxPoint x="180" y="220" as="targetPoint" />
          </mxGeometry>
        </mxCell>
        <mxCell id="iH1e3BogbeshaYDqPcAG-24" value="" style="endArrow=none;dashed=1;html=1;dashPattern=1 3;strokeWidth=2;rounded=0;" edge="1" parent="1" source="iH1e3BogbeshaYDqPcAG-42" target="iH1e3BogbeshaYDqPcAG-22">
          <mxGeometry width="50" height="50" relative="1" as="geometry">
            <mxPoint x="459.5" y="880" as="sourcePoint" />
            <mxPoint x="459.5" y="160" as="targetPoint" />
          </mxGeometry>
        </mxCell>
        <mxCell id="iH1e3BogbeshaYDqPcAG-22" value="" style="rounded=1;whiteSpace=wrap;html=1;" vertex="1" parent="1">
          <mxGeometry x="450" y="227" width="20" height="53" as="geometry" />
        </mxCell>
        <mxCell id="iH1e3BogbeshaYDqPcAG-25" value="&lt;meta charset=&quot;utf-8&quot;&gt;&lt;span style=&quot;color: rgb(0, 0, 0); font-family: Helvetica; font-size: 11px; font-style: normal; font-variant-ligatures: normal; font-variant-caps: normal; font-weight: 400; letter-spacing: normal; orphans: 2; text-align: center; text-indent: 0px; text-transform: none; widows: 2; word-spacing: 0px; -webkit-text-stroke-width: 0px; white-space: nowrap; background-color: rgb(255, 255, 255); text-decoration-thickness: initial; text-decoration-style: initial; text-decoration-color: initial; display: inline !important; float: none;&quot;&gt;Chek Person in DB&lt;/span&gt;" style="endArrow=classic;html=1;rounded=0;exitX=1;exitY=0.15;exitDx=0;exitDy=0;exitPerimeter=0;entryX=0;entryY=0.25;entryDx=0;entryDy=0;" edge="1" parent="1" source="iH1e3BogbeshaYDqPcAG-17" target="iH1e3BogbeshaYDqPcAG-22">
          <mxGeometry width="50" height="50" relative="1" as="geometry">
            <mxPoint x="290" y="260" as="sourcePoint" />
            <mxPoint x="440" y="230" as="targetPoint" />
          </mxGeometry>
        </mxCell>
        <mxCell id="iH1e3BogbeshaYDqPcAG-34" value="" style="endArrow=none;dashed=1;html=1;dashPattern=1 3;strokeWidth=2;rounded=0;" edge="1" parent="1" target="iH1e3BogbeshaYDqPcAG-33">
          <mxGeometry width="50" height="50" relative="1" as="geometry">
            <mxPoint x="659.5" y="880" as="sourcePoint" />
            <mxPoint x="659.5" y="160" as="targetPoint" />
          </mxGeometry>
        </mxCell>
        <mxCell id="iH1e3BogbeshaYDqPcAG-33" value="" style="rounded=1;whiteSpace=wrap;html=1;" vertex="1" parent="1">
          <mxGeometry x="650" y="283" width="20" height="53" as="geometry" />
        </mxCell>
        <mxCell id="iH1e3BogbeshaYDqPcAG-35" value="If person not in DB check Contract Service" style="endArrow=classic;html=1;rounded=0;exitX=1.008;exitY=0.351;exitDx=0;exitDy=0;exitPerimeter=0;entryX=0;entryY=0.25;entryDx=0;entryDy=0;" edge="1" parent="1" source="iH1e3BogbeshaYDqPcAG-17" target="iH1e3BogbeshaYDqPcAG-33">
          <mxGeometry width="50" height="50" relative="1" as="geometry">
            <mxPoint x="340" y="350" as="sourcePoint" />
            <mxPoint x="390" y="300" as="targetPoint" />
          </mxGeometry>
        </mxCell>
        <mxCell id="iH1e3BogbeshaYDqPcAG-36" value="" style="endArrow=classic;html=1;rounded=0;exitX=0;exitY=0.75;exitDx=0;exitDy=0;entryX=1.028;entryY=0.236;entryDx=0;entryDy=0;entryPerimeter=0;" edge="1" parent="1" source="iH1e3BogbeshaYDqPcAG-22" target="iH1e3BogbeshaYDqPcAG-17">
          <mxGeometry width="50" height="50" relative="1" as="geometry">
            <mxPoint x="340" y="350" as="sourcePoint" />
            <mxPoint x="390" y="300" as="targetPoint" />
          </mxGeometry>
        </mxCell>
        <mxCell id="iH1e3BogbeshaYDqPcAG-37" value="" style="endArrow=classic;html=1;rounded=0;exitX=-0.076;exitY=0.657;exitDx=0;exitDy=0;exitPerimeter=0;entryX=1.003;entryY=0.43;entryDx=0;entryDy=0;entryPerimeter=0;" edge="1" parent="1" source="iH1e3BogbeshaYDqPcAG-33" target="iH1e3BogbeshaYDqPcAG-17">
          <mxGeometry width="50" height="50" relative="1" as="geometry">
            <mxPoint x="480" y="320" as="sourcePoint" />
            <mxPoint x="530" y="270" as="targetPoint" />
          </mxGeometry>
        </mxCell>
        <mxCell id="iH1e3BogbeshaYDqPcAG-38" value="" style="rounded=1;whiteSpace=wrap;html=1;" vertex="1" parent="1">
          <mxGeometry x="450" y="350" width="20" height="29" as="geometry" />
        </mxCell>
        <mxCell id="iH1e3BogbeshaYDqPcAG-43" value="" style="endArrow=none;dashed=1;html=1;dashPattern=1 3;strokeWidth=2;rounded=0;" edge="1" parent="1" target="iH1e3BogbeshaYDqPcAG-42">
          <mxGeometry width="50" height="50" relative="1" as="geometry">
            <mxPoint x="459.5" y="880" as="sourcePoint" />
            <mxPoint x="460" y="280" as="targetPoint" />
          </mxGeometry>
        </mxCell>
        <mxCell id="iH1e3BogbeshaYDqPcAG-42" value="" style="rounded=1;whiteSpace=wrap;html=1;" vertex="1" parent="1">
          <mxGeometry x="450" y="410" width="20" height="20" as="geometry" />
        </mxCell>
        <mxCell id="iH1e3BogbeshaYDqPcAG-44" value="" style="endArrow=classic;html=1;rounded=0;entryX=0;entryY=0.25;entryDx=0;entryDy=0;exitX=1.01;exitY=0.764;exitDx=0;exitDy=0;exitPerimeter=0;" edge="1" parent="1" source="iH1e3BogbeshaYDqPcAG-17" target="iH1e3BogbeshaYDqPcAG-42">
          <mxGeometry width="50" height="50" relative="1" as="geometry">
            <mxPoint x="350" y="510" as="sourcePoint" />
            <mxPoint x="400" y="460" as="targetPoint" />
          </mxGeometry>
        </mxCell>
        <mxCell id="iH1e3BogbeshaYDqPcAG-45" value="Save Order in DB" style="edgeLabel;html=1;align=center;verticalAlign=middle;resizable=0;points=[];" vertex="1" connectable="0" parent="iH1e3BogbeshaYDqPcAG-44">
          <mxGeometry x="-0.4201" y="1" relative="1" as="geometry">
            <mxPoint x="28" as="offset" />
          </mxGeometry>
        </mxCell>
        <mxCell id="iH1e3BogbeshaYDqPcAG-46" value="" style="endArrow=classic;html=1;rounded=0;exitX=1.026;exitY=0.885;exitDx=0;exitDy=0;exitPerimeter=0;entryX=0;entryY=0.5;entryDx=0;entryDy=0;" edge="1" parent="1" source="iH1e3BogbeshaYDqPcAG-17" target="iH1e3BogbeshaYDqPcAG-47">
          <mxGeometry width="50" height="50" relative="1" as="geometry">
            <mxPoint x="410" y="540" as="sourcePoint" />
            <mxPoint x="830" y="448" as="targetPoint" />
          </mxGeometry>
        </mxCell>
        <mxCell id="iH1e3BogbeshaYDqPcAG-48" value="Dispatch new order event" style="edgeLabel;html=1;align=center;verticalAlign=middle;resizable=0;points=[];" vertex="1" connectable="0" parent="iH1e3BogbeshaYDqPcAG-46">
          <mxGeometry x="-0.2317" y="-2" relative="1" as="geometry">
            <mxPoint x="42" y="-2" as="offset" />
          </mxGeometry>
        </mxCell>
        <mxCell id="iH1e3BogbeshaYDqPcAG-47" value="" style="rounded=1;whiteSpace=wrap;html=1;" vertex="1" parent="1">
          <mxGeometry x="850" y="420" width="20" height="55" as="geometry" />
        </mxCell>
        <mxCell id="Frtb5KUb3iD4sM5Ahgph-1" value="Responce" style="endArrow=classic;html=1;rounded=0;exitX=-0.017;exitY=0.911;exitDx=0;exitDy=0;exitPerimeter=0;entryX=1.02;entryY=0.911;entryDx=0;entryDy=0;entryPerimeter=0;" edge="1" parent="1" source="iH1e3BogbeshaYDqPcAG-17" target="iH1e3BogbeshaYDqPcAG-14">
          <mxGeometry width="50" height="50" relative="1" as="geometry">
            <mxPoint x="140" y="500" as="sourcePoint" />
            <mxPoint x="190" y="450" as="targetPoint" />
          </mxGeometry>
        </mxCell>
      </root>
    </mxGraphModel>
  </diagram>
  <diagram id="TcJI0OoRsKfwKv1Ij2oO" name="Handle Person Change ">
    <mxGraphModel dx="2291" dy="1469" grid="1" gridSize="10" guides="1" tooltips="1" connect="1" arrows="1" fold="1" page="1" pageScale="1" pageWidth="827" pageHeight="1169" math="0" shadow="0">
      <root>
        <mxCell id="0" />
        <mxCell id="1" parent="0" />
        <mxCell id="rIVDFJjoO5pZdZXe8Wiv-1" value="Http Client" style="shape=umlActor;verticalLabelPosition=bottom;verticalAlign=top;html=1;outlineConnect=0;" vertex="1" parent="1">
          <mxGeometry x="90" y="60" width="30" height="60" as="geometry" />
        </mxCell>
        <mxCell id="rIVDFJjoO5pZdZXe8Wiv-2" value="Order Service" style="rounded=0;whiteSpace=wrap;html=1;" vertex="1" parent="1">
          <mxGeometry x="200" y="70" width="120" height="60" as="geometry" />
        </mxCell>
        <mxCell id="rIVDFJjoO5pZdZXe8Wiv-3" value="PG SQL DB" style="rounded=0;whiteSpace=wrap;html=1;" vertex="1" parent="1">
          <mxGeometry x="400" y="70" width="120" height="60" as="geometry" />
        </mxCell>
        <mxCell id="rIVDFJjoO5pZdZXe8Wiv-4" value="Contract Service" style="rounded=0;whiteSpace=wrap;html=1;" vertex="1" parent="1">
          <mxGeometry x="600" y="70" width="120" height="60" as="geometry" />
        </mxCell>
        <mxCell id="rIVDFJjoO5pZdZXe8Wiv-5" value="Kafka" style="rounded=0;whiteSpace=wrap;html=1;" vertex="1" parent="1">
          <mxGeometry x="800" y="70" width="120" height="60" as="geometry" />
        </mxCell>
        <mxCell id="rIVDFJjoO5pZdZXe8Wiv-6" value="" style="endArrow=none;dashed=1;html=1;dashPattern=1 3;strokeWidth=2;rounded=0;" edge="1" parent="1" source="rIVDFJjoO5pZdZXe8Wiv-12">
          <mxGeometry width="50" height="50" relative="1" as="geometry">
            <mxPoint x="110" y="880" as="sourcePoint" />
            <mxPoint x="110" y="160" as="targetPoint" />
          </mxGeometry>
        </mxCell>
        <mxCell id="rIVDFJjoO5pZdZXe8Wiv-10" value="" style="endArrow=none;dashed=1;html=1;dashPattern=1 3;strokeWidth=2;rounded=0;" edge="1" parent="1" source="rIVDFJjoO5pZdZXe8Wiv-41">
          <mxGeometry width="50" height="50" relative="1" as="geometry">
            <mxPoint x="859.5" y="880" as="sourcePoint" />
            <mxPoint x="859.5" y="160" as="targetPoint" />
          </mxGeometry>
        </mxCell>
        <mxCell id="rIVDFJjoO5pZdZXe8Wiv-11" value="" style="endArrow=none;dashed=1;html=1;dashPattern=1 3;strokeWidth=2;rounded=0;" edge="1" parent="1" target="rIVDFJjoO5pZdZXe8Wiv-12">
          <mxGeometry width="50" height="50" relative="1" as="geometry">
            <mxPoint x="110" y="880" as="sourcePoint" />
            <mxPoint x="110" y="160" as="targetPoint" />
          </mxGeometry>
        </mxCell>
        <mxCell id="rIVDFJjoO5pZdZXe8Wiv-12" value="" style="rounded=1;whiteSpace=wrap;html=1;" vertex="1" parent="1">
          <mxGeometry x="95" y="202" width="20" height="50" as="geometry" />
        </mxCell>
        <mxCell id="rIVDFJjoO5pZdZXe8Wiv-18" value="POST/PUT" style="endArrow=classic;html=1;rounded=0;exitX=1;exitY=0.5;exitDx=0;exitDy=0;" edge="1" parent="1" source="rIVDFJjoO5pZdZXe8Wiv-12">
          <mxGeometry x="0.2442" y="-3" width="50" height="50" relative="1" as="geometry">
            <mxPoint x="116" y="205" as="sourcePoint" />
            <mxPoint x="460" y="227" as="targetPoint" />
            <Array as="points">
              <mxPoint x="320" y="227" />
            </Array>
            <mxPoint as="offset" />
          </mxGeometry>
        </mxCell>
        <mxCell id="rIVDFJjoO5pZdZXe8Wiv-35" value="" style="endArrow=none;dashed=1;html=1;dashPattern=1 3;strokeWidth=2;rounded=0;" edge="1" parent="1">
          <mxGeometry width="50" height="50" relative="1" as="geometry">
            <mxPoint x="659.5" y="880" as="sourcePoint" />
            <mxPoint x="659.5" y="160" as="targetPoint" />
          </mxGeometry>
        </mxCell>
        <mxCell id="rIVDFJjoO5pZdZXe8Wiv-36" value="" style="endArrow=none;dashed=1;html=1;dashPattern=1 3;strokeWidth=2;rounded=0;" edge="1" parent="1" source="rIVDFJjoO5pZdZXe8Wiv-39">
          <mxGeometry width="50" height="50" relative="1" as="geometry">
            <mxPoint x="459.5" y="880" as="sourcePoint" />
            <mxPoint x="459.5" y="160" as="targetPoint" />
          </mxGeometry>
        </mxCell>
        <mxCell id="rIVDFJjoO5pZdZXe8Wiv-40" value="" style="endArrow=none;dashed=1;html=1;dashPattern=1 3;strokeWidth=2;rounded=0;" edge="1" parent="1" source="uA7QggAhUPCvE5zHzxh9-14" target="rIVDFJjoO5pZdZXe8Wiv-39">
          <mxGeometry width="50" height="50" relative="1" as="geometry">
            <mxPoint x="459.5" y="880" as="sourcePoint" />
            <mxPoint x="459.5" y="160" as="targetPoint" />
          </mxGeometry>
        </mxCell>
        <mxCell id="rIVDFJjoO5pZdZXe8Wiv-39" value="" style="rounded=1;whiteSpace=wrap;html=1;" vertex="1" parent="1">
          <mxGeometry x="450" y="200" width="20" height="80" as="geometry" />
        </mxCell>
        <mxCell id="rIVDFJjoO5pZdZXe8Wiv-42" value="" style="endArrow=none;dashed=1;html=1;dashPattern=1 3;strokeWidth=2;rounded=0;" edge="1" parent="1" target="rIVDFJjoO5pZdZXe8Wiv-41">
          <mxGeometry width="50" height="50" relative="1" as="geometry">
            <mxPoint x="859.5" y="880" as="sourcePoint" />
            <mxPoint x="859.5" y="160" as="targetPoint" />
          </mxGeometry>
        </mxCell>
        <mxCell id="uA7QggAhUPCvE5zHzxh9-5" style="edgeStyle=orthogonalEdgeStyle;rounded=0;orthogonalLoop=1;jettySize=auto;html=1;exitX=0;exitY=0.75;exitDx=0;exitDy=0;entryX=1.054;entryY=0.108;entryDx=0;entryDy=0;entryPerimeter=0;" edge="1" parent="1" source="rIVDFJjoO5pZdZXe8Wiv-41">
          <mxGeometry relative="1" as="geometry">
            <mxPoint x="271.08000000000015" y="315.91999999999996" as="targetPoint" />
          </mxGeometry>
        </mxCell>
        <mxCell id="uA7QggAhUPCvE5zHzxh9-6" value="Person Event" style="edgeLabel;html=1;align=center;verticalAlign=middle;resizable=0;points=[];" vertex="1" connectable="0" parent="uA7QggAhUPCvE5zHzxh9-5">
          <mxGeometry x="0.4686" y="-1" relative="1" as="geometry">
            <mxPoint as="offset" />
          </mxGeometry>
        </mxCell>
        <mxCell id="rIVDFJjoO5pZdZXe8Wiv-41" value="" style="rounded=1;whiteSpace=wrap;html=1;" vertex="1" parent="1">
          <mxGeometry x="850" y="240" width="20" height="100" as="geometry" />
        </mxCell>
        <mxCell id="uA7QggAhUPCvE5zHzxh9-1" value="Dispatch Event" style="endArrow=classic;html=1;rounded=0;exitX=1;exitY=0.75;exitDx=0;exitDy=0;entryX=0;entryY=0.25;entryDx=0;entryDy=0;" edge="1" parent="1" source="rIVDFJjoO5pZdZXe8Wiv-39" target="rIVDFJjoO5pZdZXe8Wiv-41">
          <mxGeometry width="50" height="50" relative="1" as="geometry">
            <mxPoint x="590" y="400" as="sourcePoint" />
            <mxPoint x="640" y="350" as="targetPoint" />
          </mxGeometry>
        </mxCell>
        <mxCell id="uA7QggAhUPCvE5zHzxh9-9" value="" style="endArrow=none;dashed=1;html=1;dashPattern=1 3;strokeWidth=2;rounded=0;" edge="1" parent="1">
          <mxGeometry width="50" height="50" relative="1" as="geometry">
            <mxPoint x="259.63" y="880" as="sourcePoint" />
            <mxPoint x="259.63" y="160" as="targetPoint" />
          </mxGeometry>
        </mxCell>
        <mxCell id="uA7QggAhUPCvE5zHzxh9-10" value="" style="rounded=1;whiteSpace=wrap;html=1;" vertex="1" parent="1">
          <mxGeometry x="250" y="290" width="20" height="190" as="geometry" />
        </mxCell>
        <mxCell id="uA7QggAhUPCvE5zHzxh9-11" value="" style="rounded=1;whiteSpace=wrap;html=1;" vertex="1" parent="1">
          <mxGeometry x="650" y="330" width="20" height="70" as="geometry" />
        </mxCell>
        <mxCell id="uA7QggAhUPCvE5zHzxh9-12" value="" style="endArrow=classic;html=1;rounded=0;exitX=1.091;exitY=0.316;exitDx=0;exitDy=0;exitPerimeter=0;entryX=0;entryY=0.25;entryDx=0;entryDy=0;" edge="1" parent="1" source="uA7QggAhUPCvE5zHzxh9-10" target="uA7QggAhUPCvE5zHzxh9-11">
          <mxGeometry width="50" height="50" relative="1" as="geometry">
            <mxPoint x="500" y="380" as="sourcePoint" />
            <mxPoint x="550" y="330" as="targetPoint" />
          </mxGeometry>
        </mxCell>
        <mxCell id="uA7QggAhUPCvE5zHzxh9-13" value="Request Person" style="edgeLabel;html=1;align=center;verticalAlign=middle;resizable=0;points=[];" vertex="1" connectable="0" parent="uA7QggAhUPCvE5zHzxh9-12">
          <mxGeometry x="0.6257" y="-1" relative="1" as="geometry">
            <mxPoint as="offset" />
          </mxGeometry>
        </mxCell>
        <mxCell id="uA7QggAhUPCvE5zHzxh9-15" value="" style="endArrow=none;dashed=1;html=1;dashPattern=1 3;strokeWidth=2;rounded=0;" edge="1" parent="1" target="uA7QggAhUPCvE5zHzxh9-14">
          <mxGeometry width="50" height="50" relative="1" as="geometry">
            <mxPoint x="459.5" y="880" as="sourcePoint" />
            <mxPoint x="460" y="280" as="targetPoint" />
          </mxGeometry>
        </mxCell>
        <mxCell id="uA7QggAhUPCvE5zHzxh9-14" value="" style="rounded=1;whiteSpace=wrap;html=1;" vertex="1" parent="1">
          <mxGeometry x="450" y="420" width="20" height="60" as="geometry" />
        </mxCell>
        <mxCell id="uA7QggAhUPCvE5zHzxh9-16" value="" style="endArrow=classic;html=1;rounded=0;exitX=1.017;exitY=0.827;exitDx=0;exitDy=0;exitPerimeter=0;" edge="1" parent="1" source="uA7QggAhUPCvE5zHzxh9-10" target="uA7QggAhUPCvE5zHzxh9-14">
          <mxGeometry width="50" height="50" relative="1" as="geometry">
            <mxPoint x="320" y="530" as="sourcePoint" />
            <mxPoint x="370" y="480" as="targetPoint" />
          </mxGeometry>
        </mxCell>
        <mxCell id="uA7QggAhUPCvE5zHzxh9-17" value="Insert/ Update Person&amp;nbsp;" style="edgeLabel;html=1;align=center;verticalAlign=middle;resizable=0;points=[];" vertex="1" connectable="0" parent="uA7QggAhUPCvE5zHzxh9-16">
          <mxGeometry x="0.163" y="-2" relative="1" as="geometry">
            <mxPoint as="offset" />
          </mxGeometry>
        </mxCell>
      </root>
    </mxGraphModel>
  </diagram>
</mxfile>
